<svg xmlns="http://www.w3.org/2000/svg" version="1.1" xmlns:xlink="http://www.w3.org/1999/xlink" xmlns:svgjs="http://svgjs.dev/svgjs" width="1000" height="1000" viewBox="0 0 1000 1000"><rect width="1000" height="1000" fill="#ffffff"></rect><g transform="matrix(0.7,0,0,0.7,149.57575757575756,282.1265587044535)"><svg viewBox="0 0 396 247" data-background-color="#ffffff" preserveAspectRatio="xMidYMid meet" height="623" width="1000" xmlns="http://www.w3.org/2000/svg" xmlns:xlink="http://www.w3.org/1999/xlink"><defs></defs><g id="tight-bounds" transform="matrix(1,0,0,1,0.2400000000000091,-0.09999999999999432)"><svg viewBox="0 0 395.52 247.2" height="247.2" width="395.52"><g><svg></svg></g><g><svg viewBox="0 0 395.52 247.2" height="247.2" width="395.52"><g transform="matrix(1,0,0,1,75.54432,96.21703633909104)"><svg viewBox="0 0 244.43135999999998 54.76592732181793" height="54.76592732181793" width="244.43135999999998"><g><svg viewBox="0 0 366.9800224412306 82.22349717145765" height="54.76592732181793" width="244.43135999999998"><g><rect width="5.3654123224103705" height="71.39522185654789" x="258.4769419958387" y="5.41413765745488" fill="#97978d" opacity="1" stroke-width="0" stroke="transparent" fill-opacity="1" class="rect-o-0" data-fill-palette-color="primary" rx="1%" id="o-0" data-palette-color="#97978d"></rect></g><g transform="matrix(1,0,0,1,0,11.363739478833871)"><svg viewBox="0 0 244.43136 59.49601821378991" height="59.49601821378991" width="244.43136"><g><svg viewBox="0 0 244.43136 59.49601821378991" height="59.49601821378991" width="244.43136"><g><svg viewBox="0 0 244.43136 59.49601821378991" height="59.49601821378991" width="244.43136"><g transform="matrix(1,0,0,1,0,0)"><svg width="244.43136" viewBox="0 -38.43000030517578 211.00999450683594 51.369998931884766" height="59.49601821378991" data-palette-color="#97978d"><path d="M30.42-35.16L30.42-35.16 33.35-35.01Q33.3-34.91 29.54-19.24 25.78-3.56 24.41-0.05L24.41-0.05Q23.93 0.05 23.44 0.05L23.44 0.05Q22.07 0.05 20.36-0.29L20.36-0.29Q19.04-4.2 16.36-16.11L16.36-16.11Q13.33-3.66 12.01-0.05L12.01-0.05Q11.52 0.05 11.04 0.05L11.04 0.05Q9.67 0.05 7.96-0.29L7.96-0.29Q7.23-2.49 6.27-6.3 5.32-10.11 4.3-14.75 3.27-19.38 2.51-22.97 1.76-26.56 0.93-30.66 0.1-34.77 0-35.16L0-35.16 2.78-35.16Q4.74-26.17 9.81-6.35L9.81-6.35Q10.55-8.98 12.3-15.53 14.06-22.07 14.65-24.17L14.65-24.17Q13.96-27.29 12.4-35.16L12.4-35.16 15.19-35.16Q17.14-26.17 22.22-6.35L22.22-6.35Q29.74-33.79 30.42-35.16ZM35.59-35.16L35.59-35.16 38.13-34.57Q38.28-32.57 38.35-28.17 38.43-23.78 38.52-22.12L38.52-22.12Q41.16-24.9 44.87-24.9L44.87-24.9Q48.19-24.9 50.61-22.56 53.02-20.21 53.02-16.31L53.02-16.31 53.02-0.24Q52.39 0.05 51.41 0.05L51.41 0.05Q50.34 0.05 49.46-0.15L49.46-0.15Q49.46-0.54 49.48-1.34 49.51-2.15 49.51-2.54L49.51-2.54Q49.51-4.44 49.36-9.11 49.22-13.77 49.22-16.89L49.22-16.89Q48.48-21.39 44.68-21.39L44.68-21.39Q43.02-21.39 41.4-20.48 39.79-19.58 39.06-18.36L39.06-18.36Q39.21-15.28 39.26-9.08 39.3-2.88 39.4-0.15L39.4-0.15Q38.23 0.05 37.4 0.05L37.4 0.05Q36.18 0.05 35.35-0.24L35.35-0.24Q35.45-2.64 35.45-7.81L35.45-7.81Q35.45-10.11 35.4-16.24 35.35-22.36 35.37-26.78 35.4-31.2 35.59-35.16ZM57.03-10.4L57.03-10.4Q57.03-12.35 57.44-14.75 57.86-17.14 58.69-19.78 59.52-22.41 61.18-24.17 62.84-25.93 65.03-25.93L65.03-25.93Q69.72-25.93 72.55-21.7 75.39-17.48 75.39-12.3L75.39-12.3Q75.39-10.11 74.92-7.93 74.46-5.76 73.48-3.66 72.5-1.56 70.67-0.17 68.84 1.22 66.4 1.42L66.4 1.42Q61.91 0.83 59.47-2.42 57.03-5.66 57.03-10.4ZM65.33-23.39L65.33-23.39Q63.62-23.19 62.45-20.26 61.27-17.33 60.93-14.58 60.59-11.82 60.59-9.72L60.59-9.72Q60.59-6.98 62.28-4.66 63.96-2.34 66.06-2.34L66.06-2.34Q67.57-2.34 68.79-3.52 70.01-4.69 70.72-6.42 71.43-8.15 71.8-9.91 72.16-11.67 72.16-13.04L72.16-13.04Q72.16-17.04 70.36-20.02 68.55-23 65.33-23.39ZM92.42-23.54L92.42-23.54 91.94-21.58Q87.2-23.54 84.56-23.54L84.56-23.54Q82.22-23.54 81.27-22.83 80.31-22.12 80.31-19.82L80.31-19.82Q80.31-17.97 81.66-16.75 83-15.53 84.9-14.82 86.81-14.11 88.74-13.31 90.67-12.5 92.01-10.94 93.35-9.38 93.35-7.08L93.35-7.08Q93.35-3.96 91.06-1.61 88.76 0.73 85.1 0.78L85.1 0.78Q82.41 0.78 80.07-0.34 77.73-1.46 76.36-3.17L76.36-3.17 77.78-4.64Q78.36-4.39 79.51-3.86 80.66-3.32 81.14-3.15 81.63-2.98 82.59-2.78 83.54-2.59 84.61-2.59L84.61-2.59Q86.91-2.59 88.37-3.61 89.84-4.64 89.84-6.49L89.84-6.49Q89.84-7.71 89.15-8.57 88.47-9.42 87.35-9.96 86.22-10.5 84.88-10.99 83.54-11.47 82.19-12.08 80.85-12.7 79.73-13.55 78.61-14.4 77.92-15.87 77.24-17.33 77.24-19.34L77.24-19.34Q77.24-22.27 78.83-24.24 80.41-26.22 83.29-26.22L83.29-26.22Q84.42-26.22 85.83-25.88 87.25-25.54 88.08-25.24 88.91-24.95 90.54-24.29 92.18-23.63 92.42-23.54ZM114.54-37.3L113.91 1.27 111.22 0.73Q111.22-0.24 111.17-0.73L111.17-0.73Q108.58 0.93 105.7 0.93L105.7 0.93Q101.26 0.93 98.79-2.88 96.33-6.69 96.33-11.52L96.33-11.52Q96.33-14.01 96.69-16.21 97.06-18.41 97.96-20.73 98.87-23.05 100.8-24.41 102.72-25.78 105.46-25.78L105.46-25.78Q108.14-25.78 110.49-24.46L110.49-24.46Q110.88-29.64 110.88-34.91L110.88-34.91Q110.88-37.3 110.83-38.43L110.83-38.43Q113.17-37.99 114.54-37.3L114.54-37.3ZM110.78-3.96L110.78-3.96 110.63-19.68Q110.05-20.9 108.8-21.61 107.56-22.31 106.14-22.31L106.14-22.31Q104.24-22.31 102.9-21.09 101.55-19.87 100.99-17.85 100.43-15.82 100.21-14.06 99.99-12.3 99.99-10.35L99.99-10.35Q99.99-2.05 105.56-2.05L105.56-2.05Q107.41-2.05 108.95-2.56 110.49-3.08 110.78-3.96ZM134.61-18.6L134.61-18.6 132.46-18.75Q131.43-21.48 128.99-21.48L128.99-21.48Q127.92-21.48 126.72-21 125.52-20.51 124.74-20 123.96-19.48 122.69-18.51L122.69-18.51Q122.69-17.82 122.67-14.06 122.64-10.3 122.72-5.71 122.79-1.12 122.89-0.78L122.89-0.78Q122.45 0.68 121.18 0.68L121.18 0.68Q120.3 0.68 119.49-0.02 118.69-0.73 118.49-1.76L118.49-1.76Q119.42-17.43 120.15-25.44L120.15-25.44 122.35-24.95 122.5-21.68Q125.92-24.51 128.36-24.51L128.36-24.51Q131.04-24.51 132.87-23.29 134.7-22.07 134.7-19.73L134.7-19.73Q134.7-18.99 134.61-18.6ZM137.73-25.1L137.73-25.1 139.98-24.61Q140.37-20.61 140.66-12.04 140.95-3.47 141.05-1.42L141.05-1.42Q140.61 0.1 139.34 0.1L139.34 0.1Q138.46 0.1 137.66-0.61 136.85-1.32 136.65-2.34L136.65-2.34Q136.75-4.35 137.05-12.77 137.34-21.19 137.73-25.1ZM138.41-33.84L138.41-33.84Q139.73-33.84 140.61-32.69 141.49-31.54 141.49-30.08L141.49-30.08Q141.49-29 140.98-28.34 140.46-27.69 139.58-27.69L139.58-27.69Q138.22-27.69 137.44-28.81 136.65-29.93 136.65-31.45L136.65-31.45Q136.65-32.52 137.12-33.18 137.58-33.84 138.41-33.84ZM158.77-25.1L158.77-25.1 162.04-24.66Q161.12-20.8 159.11-12.92 157.11-5.03 155.99-0.1L155.99-0.1Q154.08 0.24 152.67 0.24L152.67 0.24Q151.5 0.24 150.47 0.05L150.47 0.05Q149.74-2.49 148.15-7.98 146.56-13.48 145.47-17.53 144.37-21.58 143.49-25.29L143.49-25.29 146.71-25.05 153.06-4.74Q153.84-7.08 154.72-10.01 155.6-12.94 156.13-15.01 156.67-17.09 157.55-20.43 158.43-23.78 158.77-25.1ZM165.07-25.1L165.07-25.1 167.31-24.61Q167.7-20.61 168-12.04 168.29-3.47 168.39-1.42L168.39-1.42Q167.95 0.1 166.68 0.1L166.68 0.1Q165.8 0.1 164.99-0.61 164.19-1.32 163.99-2.34L163.99-2.34Q164.09-4.35 164.38-12.77 164.68-21.19 165.07-25.1ZM165.75-33.84L165.75-33.84Q167.07-33.84 167.95-32.69 168.83-31.54 168.83-30.08L168.83-30.08Q168.83-29 168.31-28.34 167.8-27.69 166.92-27.69L166.92-27.69Q165.56-27.69 164.77-28.81 163.99-29.93 163.99-31.45L163.99-31.45Q163.99-32.52 164.46-33.18 164.92-33.84 165.75-33.84ZM176.15-19.53L176.15-19.53 176.34-0.2Q175.61 0.2 174.59 0.2L174.59 0.2Q173.81 0.2 172.83-0.05L172.83-0.05Q172.98-3.13 173.02-12.16 173.07-21.19 173.42-25.54L173.42-25.54 175.61-25.05 175.76-22.31Q178.35-25.05 181.72-25.05L181.72-25.05Q183.42-25.05 184.45-24.8 185.48-24.56 186.43-23.61 187.38-22.66 187.87-21.09 188.36-19.53 188.75-16.63 189.14-13.72 189.31-9.84 189.48-5.96 189.53-0.05L189.53-0.05Q189.24 0.05 188.41 0.05L188.41 0.05Q186.65 0.05 185.67-0.39L185.67-0.39Q185.48-1.17 185.48-2.98L185.48-2.98Q185.48-3.91 185.55-6.47 185.62-9.03 185.62-10.45L185.62-10.45Q185.62-12.79 185.45-14.55 185.28-16.31 184.82-18.02 184.35-19.73 183.4-20.65 182.45-21.58 181.03-21.58L181.03-21.58Q179.42-21.58 178.52-21.34 177.61-21.09 177.25-20.75 176.88-20.41 176.15-19.53ZM208.37-25.2L208.37-25.2 210.57-25.68Q210.57-24.22 210.62-23.39L210.62-23.39Q210.91-12.7 210.91-9.47L210.91-9.47Q210.91-8.35 210.96-5.96 211.01-3.56 211.01-2.34L211.01-2.34Q211.01 0.34 210.84 2.29 210.67 4.25 210.08 6.37 209.5 8.5 208.5 9.84 207.49 11.18 205.66 12.06 203.83 12.94 201.34 12.94L201.34 12.94Q199.19 12.94 193.77 12.3L193.77 12.3Q193.73 11.77 193.6 11.13 193.48 10.5 193.48 10.16L193.48 10.16Q193.48 9.42 193.63 8.98L193.63 8.98Q194.02 9.03 196.68 9.38 199.34 9.72 200.61 9.72L200.61 9.72Q203.98 9.72 205.79 7.67 207.59 5.62 207.64 0L207.64 0Q205.25 1.37 202.61 1.37L202.61 1.37Q200.41 1.37 198.75 0.46 197.09-0.44 196.12-1.83 195.14-3.22 194.53-5.2 193.92-7.18 193.7-9.03 193.48-10.89 193.48-12.99L193.48-12.99Q193.48-18.26 195.8-21.83 198.12-25.39 202.86-25.39L202.86-25.39Q205.64-25.39 208.32-23.68L208.32-23.68Q208.37-24.17 208.37-25.2ZM207.79-4.74L207.79-4.74 207.93-20.51Q207.64-21.39 206.1-21.9 204.56-22.41 202.71-22.41L202.71-22.41Q200.07-22.41 198.61-20 197.14-17.58 197.14-14.11L197.14-14.11Q197.14-12.3 197.34-10.57 197.53-8.84 198.12-6.76 198.71-4.69 200.02-3.42 201.34-2.15 203.3-2.15L203.3-2.15Q204.76-2.15 205.98-2.86 207.2-3.56 207.79-4.74Z" opacity="1" transform="matrix(1,0,0,1,0,0)" fill="#97978d" class="undefined-text-0" data-fill-palette-color="primary" id="text-0"></path></svg></g></svg></g></svg></g></svg></g><g transform="matrix(1,0,0,1,277.8879363140877,0)"><svg viewBox="0 0 89.09208612714285 82.22349717145765" height="82.22349717145765" width="89.09208612714285"><g><svg xmlns="http://www.w3.org/2000/svg" xmlns:xlink="http://www.w3.org/1999/xlink" version="1.1" x="0" y="0" viewBox="4.085917949676514 3.7230000495910645 40.02796936035156 36.94199752807617" enable-background="new 0 0 48 48" xml:space="preserve" height="82.22349717145765" width="89.09208612714285" class="icon-icon-0" data-fill-palette-color="accent" id="icon-0"><path fill="#97978d" d="M41.802 37.296c-0.004-0.142-0.069-0.273-0.18-0.362-0.111-0.088-0.255-0.127-0.394-0.096-0.052 0.01-5.196 1.034-7.292 1.307-0.262 0.034-0.447 0.273-0.414 0.536 0.043 0.339 0.095 0.997 0.103 1.057 0.187 0.927 1.151 0.927 1.468 0.927l0.288-0.002c0 0 4.392-0.153 4.761-0.164C41.827 40.45 41.809 37.619 41.802 37.296z" data-fill-palette-color="accent"></path><path fill="#97978d" d="M6.638 37.296c0.004-0.142 0.069-0.273 0.18-0.362 0.111-0.088 0.255-0.127 0.394-0.096 0.052 0.01 5.196 1.034 7.292 1.307 0.262 0.034 0.447 0.273 0.414 0.536-0.043 0.339-0.095 0.997-0.103 1.057-0.187 0.927-1.151 0.927-1.468 0.927l-0.288-0.002c0 0-4.392-0.153-4.761-0.164C6.612 40.45 6.631 37.619 6.638 37.296z" data-fill-palette-color="accent"></path><g fill="#97978d" data-fill-palette-color="accent"><path fill="#97978d" d="M23.995 19.296c2.243 0 13.533-0.098 15.489-2.035l0.204-0.202-2.425-9.455c-0.805-2.503-2.284-3.881-4.167-3.881H14.998c-1.857 0-3.416 1.453-4.175 3.908l-2.455 9.412 0.186 0.201C10.354 19.197 21.732 19.296 23.995 19.296zM26.142 18.274c0.744-1.11 2.139-1.839 3.695-1.839 1.356 0 2.594 0.545 3.387 1.434C31.217 18.082 28.793 18.224 26.142 18.274zM11.784 7.904c0.231-0.746 1.146-3.182 3.214-3.182h18.099c1.906 0 2.833 1.997 3.207 3.158l2.264 8.832c-0.646 0.401-2.133 0.752-4.187 1.021-0.935-1.408-2.652-2.298-4.544-2.298-2.14 0-4.046 1.153-4.85 2.854-0.329 0.003-0.658 0.006-0.992 0.006-8.08 0-13.251-0.767-14.511-1.571L11.784 7.904z" data-fill-palette-color="accent"></path><path fill="#97978d" d="M24.05 28.793c0.023 0.003 0.048 0.005 0.071 0.005 0.024 0 0.048-0.002 0.072-0.005 19.306-2.803 19.306-3.717 19.306-4.208 0-0.077-0.018-0.154-0.053-0.224l-2.944-5.898c-0.108-0.218-0.361-0.324-0.59-0.256-3.344 0.997-9.332 1.592-16.021 1.592-6.595 0-12.462-0.595-15.693-1.59-0.232-0.076-0.483 0.035-0.593 0.251l-2.996 5.898c-0.036 0.07-0.055 0.147-0.055 0.227C4.555 25.078 4.555 25.997 24.05 28.793z" data-fill-palette-color="accent"></path><path fill="#97978d" d="M17.809 30.634c-0.266-0.05-0.53 0.14-0.573 0.413-0.045 0.272 0.141 0.529 0.413 0.573 3.569 0.58 6.501 1.005 6.501 1.005 0.023 0.003 0.047 0.005 0.071 0.005 0.023 0 0.047-0.002 0.069-0.005 0 0 2.836-0.398 6.314-0.956 0.272-0.044 0.458-0.301 0.415-0.573-0.044-0.273-0.309-0.454-0.573-0.415-3.148 0.506-5.768 0.88-6.225 0.944C23.756 31.557 21.045 31.159 17.809 30.634z" data-fill-palette-color="accent"></path><path fill="#97978d" d="M43.298 26.127c-0.181-0.078-0.395-0.043-0.54 0.093-0.203 0.188-1.71 0.938-12.565 2.67-3.034 0.484-5.526 0.84-5.971 0.903-0.453-0.066-3.038-0.445-6.164-0.95C7.217 27.089 5.705 26.396 5.506 26.229c-0.145-0.144-0.362-0.184-0.544-0.105-0.187 0.077-0.308 0.26-0.308 0.461v3.664c0 0.134 0.054 0.262 0.148 0.355 0.274 0.271 0.915 0.902 12.588 2.807 3.685 0.601 6.759 1.046 6.759 1.046 0.023 0.003 0.047 0.005 0.071 0.005 0.023 0 0.047-0.002 0.069-0.005 0.03-0.004 3.016-0.424 6.568-0.997 11.519-1.854 12.291-2.574 12.581-2.846 0.102-0.094 0.159-0.227 0.159-0.365v-3.664C43.599 26.386 43.48 26.207 43.298 26.127zM42.599 29.984c-0.571 0.29-2.853 1.032-11.898 2.489-3.24 0.521-6.007 0.916-6.479 0.983-0.478-0.07-3.321-0.487-6.671-1.032C8.467 30.942 6.209 30.24 5.654 29.979v-2.599c1.209 0.421 4.238 1.153 12.243 2.448 3.456 0.559 6.252 0.964 6.252 0.964 0.046 0.005 0.095 0.007 0.141 0 0 0 2.698-0.38 6.061-0.915 8.039-1.283 11.049-2.036 12.248-2.478V29.984z" data-fill-palette-color="accent"></path><path fill="#97978d" d="M43.298 31.611c-0.181-0.078-0.395-0.043-0.54 0.093-0.77 0.713-10.015 2.374-18.536 3.573-8.486-1.23-17.913-2.896-18.716-3.564-0.145-0.142-0.359-0.184-0.545-0.104-0.186 0.077-0.307 0.26-0.307 0.461v2.892c0 0.134 0.054 0.262 0.148 0.356 1.16 1.144 15.102 3.237 19.347 3.852 0.023 0.003 0.048 0.005 0.071 0.005s0.047-0.002 0.069-0.005c2.955-0.415 17.766-2.551 19.149-3.843 0.102-0.094 0.159-0.227 0.159-0.365v-2.892C43.599 31.87 43.48 31.691 43.298 31.611zM37.981 35.708c-0.122 0.023-0.243 0.035-0.36 0.035-0.545 0-0.986-0.245-1.051-0.585-0.035-0.18 0.043-0.344 0.114-0.45 0.192-0.285 0.562-0.504 0.988-0.586 0.123-0.024 0.244-0.035 0.361-0.035 0.545 0 0.988 0.245 1.054 0.581C39.168 35.092 38.65 35.578 37.981 35.708zM35.588 35.348c0.068 0.356 0.27 0.662 0.555 0.898-2.129 0.398-4.597 0.815-7.16 1.216v-1.878c2.053-0.317 4.451-0.709 6.707-1.122C35.568 34.75 35.531 35.056 35.588 35.348zM10.165 34.087c0.117 0 0.238 0.011 0.361 0.035 0.427 0.082 0.796 0.301 0.988 0.586 0.071 0.106 0.149 0.271 0.114 0.452-0.078 0.41-0.727 0.683-1.41 0.548-0.67-0.13-1.188-0.616-1.107-1.037C9.177 34.332 9.62 34.087 10.165 34.087zM12.611 35.35c0.062-0.316 0.012-0.646-0.132-0.953 2.272 0.416 4.708 0.817 6.855 1.154v1.877c-2.58-0.408-5.071-0.83-7.222-1.228C12.369 35.971 12.548 35.682 12.611 35.35zM5.654 32.846c0.69 0.244 1.737 0.511 2.979 0.784-0.256 0.23-0.439 0.52-0.504 0.853-0.062 0.327-0.004 0.648 0.134 0.945-1.292-0.288-2.222-0.541-2.608-0.732V32.846zM42.599 34.699c-0.398 0.208-1.356 0.477-2.685 0.779 0.156-0.311 0.222-0.652 0.156-0.999-0.061-0.312-0.229-0.582-0.459-0.805 1.24-0.279 2.29-0.555 2.987-0.812V34.699z" data-fill-palette-color="accent"></path><path fill="#97978d" d="M29.736 14.762c2.15 0 3.906-1.54 4.126-3.502h2.312c0.276 0 0.5-0.224 0.5-0.5s-0.224-0.5-0.5-0.5h-2.337c-0.309-1.87-2.021-3.312-4.102-3.312-2.082 0-3.797 1.441-4.105 3.312h-2.332c-0.276 0-0.5 0.224-0.5 0.5s0.224 0.5 0.5 0.5h2.312C25.83 13.222 27.586 14.762 29.736 14.762zM29.736 13.762c-1.562 0-2.864-1.042-3.123-2.407h6.246C32.601 12.72 31.299 13.762 29.736 13.762z" data-fill-palette-color="accent"></path><path fill="#97978d" d="M5.127 21.37l1.846-3.47c-0.957-0.509-2.147-0.146-2.657 0.812C3.807 19.669 4.171 20.859 5.127 21.37z" data-fill-palette-color="accent"></path><path fill="#97978d" d="M43.884 18.713c-0.51-0.959-1.7-1.321-2.657-0.812l1.846 3.47C44.028 20.859 44.393 19.669 43.884 18.713z" data-fill-palette-color="accent"></path></g></svg></g></svg></g></svg></g></svg></g><g><path d="M151.089 160.338A122.216 122.216 0 1 0 151.089 86.862L154.662 86.862A118.642 118.642 0 1 1 154.662 160.338L151.089 160.338" fill="#97978d" stroke="transparent" data-fill-palette-color="tertiary"></path></g></svg></g></svg><rect width="395.52" height="247.2" fill="none" stroke="none" visibility="hidden"></rect></g></svg></g></svg>